<svg height="470pt" viewBox="-3 0 470 470.664" width="470pt" xmlns="http://www.w3.org/2000/svg"><path d="m104.332031 62.664062c0 22.089844-17.910156 40-40 40-22.089843 0-40-17.910156-40-40 0-22.089843 17.910157-40 40-40 22.089844 0 40 17.910157 40 40zm0 0" fill="#428dc5"/><path d="m34.613281 89.207031c9.824219 11.078125 24.984375 15.796875 39.363281 12.25 14.375-3.546875 25.601563-14.773437 29.148438-29.148437 3.546875-14.378906-1.171875-29.539063-12.25-39.363282-21.839844 15.390626-40.871094 34.421876-56.261719 56.261719zm0 0" fill="#3775a4"/><path d="m464.332031 232c0 128.128906-103.871093 232-232 232-128.128906 0-232-103.871094-232-232s103.871094-232 232-232c128.128907 0 232 103.871094 232 232zm0 0" fill="#a45e14"/><path d="m464.332031 232c0 128.128906-103.871093 232-232 232-128.128906 0-232-103.871094-232-232s103.871094-232 232-232c128.128907 0 232 103.871094 232 232zm0 0" fill="#975712"/><path d="m432.332031 208c.0625-66.054688-28.105469-128.988281-77.40625-172.945312-102.183593-63.421876-235.886719-38.25-308.007812 57.992187-72.117188 96.238281-58.738281 231.632813 30.820312 311.898437 71.535157 44.519532 161.582031 46.761719 235.242188 5.851563 73.65625-40.910156 119.34375-118.539063 119.351562-202.796875zm0 0" fill="#a45e14"/><path d="m288.332031 414.664062c0 8.835938-7.164062 16-16 16-8.835937 0-16-7.164062-16-16 0-8.835937 7.164063-16 16-16 8.835938 0 16 7.164063 16 16zm0 0" fill="#834b10"/><path d="m272.332031 398.664062c-5.28125-.003906-10.21875 2.605469-13.191406 6.96875-.203125.996094-.308594 2.007813-.3125 3.023438.003906 7.011719 4.574219 13.203125 11.273437 15.273438 6.695313 2.074218 13.964844-.457032 17.925782-6.242188.195312-.996094.296875-2.007812.304687-3.023438 0-8.835937-7.164062-16-16-16zm0 0" fill="#985713"/><path d="m464.332031 438.664062c0 13.253907-10.746093 24-24 24-13.253906 0-24-10.746093-24-24 0-13.253906 10.746094-24 24-24 13.253907 0 24 10.746094 24 24zm0 0" fill="#cf5c2b"/><path d="m416.332031 438.664062c.015625 4.394532 1.25 8.699219 3.566407 12.433594 3.734374 2.316406 8.039062 3.550782 12.433593 3.566406 13.253907 0 24-10.746093 24-24-.015625-4.394531-1.25-8.699218-3.566406-12.433593-3.734375-2.316407-8.039063-3.550781-12.433594-3.566407-13.253906 0-24 10.746094-24 24zm0 0" fill="#e0632e"/><path d="m426.101562 104.457031c-3.488281-5.285156-7.1875-10.410156-11.089843-15.378906l-18.695313 1.097656c-50.621094 2.964844-101.371094 3.050781-152 .257813-45.261718-2.515625-90.621094-2.746094-135.90625-.691406l-61.46875 2.792968c-4 5.328125-7.777344 10.855469-11.328125 16.535156l73.535157-3.34375c44.742187-2.035156 89.558593-1.808593 134.28125.671876 51.238281 2.84375 102.597656 2.761718 153.832031-.246094zm0 0" fill="#72410e"/><path d="m408.410156 105.496094c-2.613281-5.289063-5.359375-10.488282-8.351562-15.535156l-3.742188.214843c-50.621094 2.964844-101.371094 3.050781-152 .257813-45.261718-2.515625-90.621094-2.746094-135.90625-.691406l-61.46875 2.792968c-4 5.335938-7.777344 10.863282-11.328125 16.535156l73.535157-3.34375c44.742187-2.035156 89.558593-1.808593 134.28125.671876 51.238281 2.84375 102.597656 2.761718 153.832031-.246094zm0 0" fill="#834b10"/><path d="m160.332031 142.664062h16v16h-16zm0 0" fill="#915312"/><path d="m32.332031 254.664062h16v16h-16zm0 0" fill="#834b10"/><path d="m272.332031 254.664062h16v16h-16zm0 0" fill="#834b10"/><g fill="#fbedbf"><path d="m24.332031 422.664062h16v16h-16zm0 0"/><path d="m56.332031 454.664062h16v16h-16zm0 0"/><path d="m.332031 454.664062h16v16h-16zm0 0"/></g><path d="m72.332031 134.664062h16v16h-16zm0 0" fill="#834b10"/><path d="m448.378906 286.792969c-37.832031 10.546875-77.003906 15.503906-116.269531 14.710937-13.136719-.246094-26.351563-1.144531-39.28125-2.65625-9.914063-1.160156-20.953125-2.480468-32-3.816406-43.375-5.203125-85.355469-18.628906-123.695313-39.566406-20.0625-10.914063-45.109374-5.164063-58.402343 13.40625l-1.054688 1.472656c-10.90625 15.308594-11.203125 35.769531-.75 51.390625s29.480469 23.148437 47.789063 18.90625c8.292968-1.988281 15.222656-7.652344 18.816406-15.382813 3.929688-8.25 3.929688-17.828124 0-26.074218-1.992188-3.84375-6.683594-5.40625-10.582031-3.523438-3.902344 1.886719-5.59375 6.53125-3.816407 10.484375 1.832032 3.863281 1.832032 8.34375 0 12.207031-1.539062 3.347657-4.523437 5.804688-8.105468 6.671876-11.835938 2.75-24.136719-2.109376-30.894532-12.207032-6.757812-10.097656-6.5625-23.324218.496094-33.214844l1.054688-1.472656c8.597656-12 24.785156-15.710937 37.753906-8.65625 40.136719 21.925782 84.089844 35.992188 129.503906 41.449219 11.03125 1.335937 22.085938 2.652344 32 3.820313 13.445313 1.601562 27.199219 2.496093 40.796875 2.761718 40.816407.75 81.523438-4.402344 120.867188-15.296875l.910156-.246093c1.855469-5.882813 3.441406-11.882813 4.800781-17.953126zm0 0" fill="#72410e"/><path d="m415.644531 294.390625c-27.519531 5.292969-55.519531 7.679687-83.535156 7.113281-13.136719-.246094-26.351563-1.144531-39.28125-2.65625-9.914063-1.160156-20.953125-2.480468-32-3.816406-43.375-5.203125-85.355469-18.628906-123.695313-39.566406-20.0625-10.914063-45.109374-5.164063-58.402343 13.40625l-1.054688 1.472656c-10.90625 15.308594-11.203125 35.769531-.75 51.390625s29.480469 23.148437 47.789063 18.90625c8.292968-1.988281 15.222656-7.652344 18.816406-15.382813 3.929688-8.25 3.929688-17.828124 0-26.074218-1.992188-3.84375-6.683594-5.40625-10.582031-3.523438-3.902344 1.886719-5.59375 6.53125-3.816407 10.484375 1.832032 3.863281 1.832032 8.34375 0 12.207031-1.535156 3.351563-4.523437 5.8125-8.105468 6.671876-11.835938 2.75-24.136719-2.109376-30.894532-12.207032-6.757812-10.097656-6.5625-23.324218.496094-33.214844l1.054688-1.472656c8.597656-12 24.785156-15.710937 37.753906-8.65625 40.136719 21.925782 84.089844 35.992188 129.503906 41.449219 11.03125 1.335937 22.085938 2.652344 32 3.820313 13.445313 1.601562 27.199219 2.496093 40.796875 2.761718 25.402344.449219 50.796875-1.367187 75.875-5.433594 2.933594-5.738281 5.609375-11.628906 8.03125-17.679687zm0 0" fill="#834b10"/><path d="m253.804688 175.078125-24.730469 8.242187c-29.152344 9.78125-60.644531 10.144532-90.015625 1.039063-38.1875-11.765625-79.363282-9.121094-115.734375 7.433594l-20.902344 9.503906c-.800781 6.054687-1.433594 12.167969-1.761719 18.398437l29.273438-13.34375c32.808594-14.929687 69.957031-17.3125 104.40625-6.695312 32.558594 10.089844 67.46875 9.683594 99.785156-1.160156l24.71875-8.25c4.199219-1.394532 6.46875-5.929688 5.070312-10.125-1.394531-4.199219-5.929687-6.46875-10.125-5.074219zm0 0" fill="#915312"/><path d="m352.332031 182.664062c0 17.671876-14.328125 32-32 32s-32-14.328124-32-32c0-17.671874 14.328125-32 32-32s32 14.328126 32 32zm0 0" fill="#834b10"/><path d="m320.332031 150.664062c-6.527343 0-12.898437 2.007813-18.246093 5.75-8.875 12.703126-7.355469 29.941407 3.601562 40.894532s28.191406 12.46875 40.890625 3.59375c6.820313-9.769532 7.636719-22.523438 2.121094-33.082032-5.515625-10.5625-16.453125-17.175781-28.367188-17.15625zm0 0" fill="#985713"/><path d="m449.347656 149.9375-3.472656-1.378906c-4.238281-1.679688-8.542969-3.199219-12.878906-4.664063-17.59375-5.683593-36.777344-3.558593-52.703125 5.832031-3.742188 2.265626-4.976563 7.113282-2.765625 10.886719 2.207031 3.777344 7.039062 5.078125 10.84375 2.921875 11.964844-7.085937 26.398437-8.699218 39.632812-4.429687 4.03125 1.316406 8.03125 2.761719 12 4.335937l15.824219 6.253906c-1.894531-6.710937-4.03125-13.304687-6.480469-19.757812zm0 0" fill="#72410e"/><path d="m422.578125 141.527344c-14.601563-2.144532-29.503906.75-42.246094 8.199218-3.742187 2.265626-4.972656 7.113282-2.765625 10.886719 2.207032 3.777344 7.039063 5.078125 10.84375 2.921875 11.6875-6.902344 25.726563-8.601562 38.722656-4.679687-1.3125-5.871094-2.847656-11.632813-4.554687-17.328125zm0 0" fill="#834b10"/><path d="m374.324219 230.335938-11.800781-3.367188c-4.25-1.210938-8.675782 1.253906-9.886719 5.503906-1.210938 4.25 1.253906 8.675782 5.503906 9.886719l11.785156 3.367187c22.582031 6.476563 46.589844 6.023438 68.910157-1.300781 8.28125-2.742187 16.753906-4.882812 25.34375-6.402343.046874-2 .152343-4 .152343-6.007813 0-3.390625-.113281-6.757813-.257812-10.121094-10.25 1.628907-20.351563 4.082031-30.207031 7.335938-19.289063 6.328125-40.03125 6.714843-59.542969 1.105469zm0 0" fill="#7f4810"/><path d="m374.324219 230.335938-11.800781-3.367188c-4.25-1.210938-8.675782 1.253906-9.886719 5.503906-1.210938 4.25 1.253906 8.675782 5.503906 9.886719l11.785156 3.367187c19.234375 5.53125 39.566407 6.023438 59.046875 1.425782.96875-5.664063 1.75-11.390625 2.296875-17.183594-18.558593 5.566406-38.320312 5.695312-56.945312.367188zm0 0" fill="#915312"/><path d="m354.644531 34.878906-8.503906-1.0625c-22.527344-2.820312-45.34375-2.355468-67.738281 1.375-61.78125 10.265625-124.421875 14.480469-187.023438 12.585938-6.234375 4.777344-12.21875 9.867187-17.933594 15.253906 15.550782.746094 31.117188 1.25 46.695313 1.25 53.90625 0 107.722656-4.449219 160.894531-13.304688 20.867188-3.480468 42.128906-3.914062 63.121094-1.289062l37.34375 4.664062c-8.476562-7.121093-17.453125-13.628906-26.855469-19.472656zm0 0" fill="#915312"/><path d="m357.851562 357.945312-63.199218-4.210937c-31.226563-2.097656-62.582032 1.234375-92.671875 9.839844-43.109375 12.300781-88.695313 13.066406-132.191407 2.21875l-26.945312-6.714844-5.839844-1.949219c4.582032 7.160156 9.558594 14.0625 14.902344 20.671875l14 3.503907c46.21875 11.546874 94.660156 10.742187 140.464844-2.335938 28.3125-8.109375 57.816406-11.246094 87.199218-9.265625l63.203126 4.207031c8.796874.585938 17.703124.722656 26.488281.480469 10.277343-.320313 22.253906-.949219 33.773437-2.078125 4.316406-5.675781 8.359375-11.542969 12.136719-17.601562-15.382813 2.121093-30.875 3.347656-46.398437 3.679687-8.226563.273437-16.625.113281-24.921876-.445313zm0 0" fill="#814a10"/><path d="m357.851562 357.945312-63.199218-4.210937c-31.226563-2.097656-62.582032 1.234375-92.671875 9.839844-43.109375 12.300781-88.695313 13.066406-132.191407 2.21875l-26.945312-6.714844-5.816406-1.941406c.097656.144531.175781.289062.273437.429687 1.878907 2.914063 3.839844 5.769532 5.839844 8.59375.472656.65625.917969 1.335938 1.398437 1.992188 1.855469 2.566406 3.800782 5.070312 5.761719 7.550781.558594.703125 1.085938 1.417969 1.648438 2.113281l13.957031 3.488282c46.21875 11.546874 94.660156 10.742187 140.464844-2.335938 28.3125-8.109375 57.816406-11.246094 87.199218-9.265625l63.203126 4.207031c1.789062.121094 3.589843.144532 5.390624.226563 5.179688-4.980469 10.082032-10.214844 14.710938-15.703125-6.328125.054687-12.703125-.058594-19.023438-.488282zm0 0" fill="#915312"/></svg>